<?xml version="1.0" encoding="UTF-8" standalone="no"?>
<!-- Created with Inkscape (http://www.inkscape.org/) -->

<svg
   version="1.1"
   id="svg1"
   width="589"
   height="687"
   viewBox="0 0 589 687"
   sodipodi:docname="logo_mag.svg"
   inkscape:version="1.4.3 (0d15f75, 2025-12-25)"
   xmlns:inkscape="http://www.inkscape.org/namespaces/inkscape"
   xmlns:sodipodi="http://sodipodi.sourceforge.net/DTD/sodipodi-0.dtd"
   xmlns="http://www.w3.org/2000/svg"
   xmlns:svg="http://www.w3.org/2000/svg">
  <defs
     id="defs1" />
  <sodipodi:namedview
     id="namedview1"
     pagecolor="#ffffff"
     bordercolor="#000000"
     borderopacity="0.25"
     inkscape:showpageshadow="2"
     inkscape:pageopacity="0.0"
     inkscape:pagecheckerboard="0"
     inkscape:deskcolor="#d1d1d1"
     inkscape:zoom="1.125182"
     inkscape:cx="294.17464"
     inkscape:cy="343.5"
     inkscape:window-width="1920"
     inkscape:window-height="991"
     inkscape:window-x="-9"
     inkscape:window-y="-9"
     inkscape:window-maximized="1"
     inkscape:current-layer="g1" />
  <g
     inkscape:groupmode="layer"
     inkscape:label="Image"
     id="g1">
    <path
       style="fill:#ffffff;fill-opacity:1"
       d="m 291.45331,676.25 c -2.04012,-12.00425 -5.71032,-28.93446 -7.96681,-36.75 -9.73115,-33.70471 -37.71376,-68.97751 -67.61904,-85.23556 -4.0521,-2.20293 -15.42427,-7.3044 -25.27149,-11.3366 l -17.90403,-7.33126 0.64688,-22.9578 c 0.35578,-12.6268 0.82853,-23.13946 1.05055,-23.36148 0.22202,-0.22202 4.03664,1.42295 8.47694,3.65548 19.07469,9.59057 44.83328,17.93793 68.20305,22.10197 15.46464,2.7555 51.90956,3.82896 69.19938,2.03823 27.96389,-2.89628 57.19956,-11.27367 84.21775,-24.13234 4.39258,-2.09054 8.04925,-3.71991 8.12595,-3.62081 0.0767,0.0991 0.30778,10.74651 0.51351,23.66093 l 0.37405,23.48077 -16.02323,6.54586 c -19.39176,7.92197 -24.62923,10.59387 -34.87695,17.79248 -15.17035,10.65655 -27.31355,23.91426 -38.68839,42.23924 -10.19836,16.42964 -20.62984,42.69887 -24.81673,62.49508 -1.15928,5.48119 -2.3384,10.97831 -2.62029,12.21581 -0.31477,1.38187 -1.25935,2.25 -2.44815,2.25 -1.45677,0 -2.0933,-0.92773 -2.57295,-3.75 z M 234,618.93109 c -26.18327,-20.89188 -56.59472,-27.68601 -84.30377,-18.83405 -3.25101,1.03857 -6.2565,1.67473 -6.67889,1.41368 -0.42238,-0.26105 -2.60935,-3.57414 -4.85993,-7.36243 -5.2706,-8.87173 -13.39826,-16.24148 -23.52948,-21.33536 -4.43745,-2.23111 -11.00655,-6.47506 -14.59801,-9.43102 C 93.227399,557.78309 87.159292,551 88.953141,551 c 0.571123,0 4.515291,1.606 8.764818,3.5689 14.399201,6.65111 21.973971,6.93917 27.853901,1.05924 2.96186,-2.96186 3.27716,-3.91707 4.01745,-12.17113 0.44183,-4.92635 0.80143,-24.48201 0.79912,-43.45701 -0.005,-43.0066 -1.60699,-60.18201 -9.41898,-101 C 106.20076,321.83299 80.933514,257.41808 62.282119,249.38579 57.893024,247.49561 52.293624,247.68073 47.5,249.87449 35.706552,255.27166 20.510165,273.17948 9.9184174,294.16161 8.2974531,297.37273 6.5276875,300 5.9856048,300 2.7659858,300 6.7989375,276.28937 13.324656,256.85208 35.624601,190.43016 80.566458,137.91493 141.23046,107.39223 164.5008,95.683907 197.54257,85.425967 218,83.558836 c 5.45648,-0.498007 6.09864,-0.403664 4,0.58765 -31.86247,15.050545 -48.65297,25.100244 -67.54741,40.429464 -18.02301,14.62223 -40.66978,40.03966 -45.69617,51.28674 -2.13616,4.77991 -1.82932,11.28777 0.69499,14.73998 1.28983,1.76394 1.70856,1.55133 7.20898,-3.66033 24.4093,-23.12787 65.87031,-44.79951 103.94606,-54.33254 14.88053,-3.72564 31.5642,-6.6098 38.23494,-6.6098 4.0948,0 4.1056,-0.0102 5.58221,-5.25 12.93813,-45.911866 24.54343,-90.508248 27.60498,-106.079305 0.63038,-3.206118 1.41958,-5.5558656 1.75379,-5.2216615 0.3342,0.3342041 2.0585,7.1039795 3.83178,15.0439445 3.65381,16.360165 7.15548,29.265623 18.58818,68.507022 4.40656,15.125 8.23612,28.48604 8.51013,29.6912 0.41686,1.83338 1.42001,2.29602 6.14288,2.833 3.10456,0.35298 13.29466,2.15346 22.64466,4.00106 36.48991,7.21056 69.82439,21.61799 99,42.7886 10.5328,7.64289 23.5,18.74395 23.5,20.11807 0,1.05485 -9.97976,8.70098 -28.77038,22.04284 -4.65271,3.30356 -5.4862,3.58291 -7.11204,2.38367 -1.01292,-0.74714 -6.65064,-4.64569 -12.52827,-8.66344 C 396.39432,186.87114 356.82322,172.74761 317.5,168.90244 c -14.72733,-1.44009 -48.04094,-0.61866 -61.73511,1.52224 -26.66036,4.16798 -55.93416,13.89433 -77.76489,25.83773 -14.95469,8.18157 -33,20.65641 -33,22.81311 0,0.45903 3.57233,3.55398 7.93851,6.87767 45.1528,34.3719 87.18688,81.10068 120.12977,133.54681 3.4547,5.5 7.55023,11.98603 9.10118,14.41341 1.55094,2.42738 4.73479,8.16284 7.07522,12.74548 2.34043,4.58263 4.48297,8.3341 4.76121,8.33659 0.27824,0.002 1.15111,-1.45798 1.93972,-3.24548 2.42235,-5.49063 12.45704,-22.76647 21.10786,-36.33954 21.98951,-34.50136 42.82812,-60.44288 71.8735,-89.47366 23.20195,-23.19029 33.64696,-31.93907 64.39413,-53.9368 12.68452,-9.075 23.95975,-17.73145 25.05605,-19.23656 1.26402,-1.73536 2.1477,-4.87135 2.41535,-8.57154 0.34817,-4.81345 -0.0267,-6.72061 -2.14143,-10.89377 C 472.54263,161.2437 452.54355,139.07611 435.5,125.46818 418.82985,112.15838 390.69762,95.033229 373,87.422076 c -3.575,-1.537487 -6.6875,-2.936427 -6.91667,-3.108754 -3.30911,-2.488363 20.2438,1.520942 36.91201,6.283365 25.45635,7.273361 47.16723,17.354493 70.31949,32.651833 46.82952,30.94157 79.60712,70.83711 99.12622,120.65233 7.58178,19.34967 15.2555,51.8026 12.82402,54.23408 -1.60702,1.60702 -2.99691,0.32779 -5.92758,-5.4557 -6.11337,-12.06434 -19.887,-29.98649 -27.95751,-36.37812 -7.18594,-5.69108 -12.33805,-7.80263 -18.99276,-7.78401 -5.56916,0.0156 -6.51887,0.34985 -10.67908,3.75883 -11.09588,9.09225 -22.94807,33.41235 -37.2051,76.34306 -15.18436,45.72308 -25.09496,98.60929 -27.61843,147.38101 -1.44606,27.94833 0.0308,71.91214 2.59741,77.32087 4.19819,8.84702 18.38271,8.84292 34.26798,-0.01 5.93251,-3.30618 6.25,-3.37566 6.25,-1.36778 0,1.27611 -2.53427,4.61244 -6.38789,8.40956 -5.00802,4.93461 -9.05825,7.64172 -18.75,12.53218 -14.14227,7.1362 -22.76417,14.61493 -27.39062,23.75895 -1.96704,3.88779 -3.19029,5.27139 -4.3536,4.92428 -18.1072,-5.40288 -28.48908,-6.42827 -42.26897,-4.17481 -16.86676,2.75827 -30.89441,8.82632 -45.2993,19.59547 -4.37271,3.26906 -8.12959,5.76453 -8.34862,5.5455 -1.03323,-1.03323 8.19835,-12.94917 16.29582,-21.03433 12.81327,-12.79378 26.36489,-21.37749 41.73604,-26.43595 11.8701,-3.90631 11.34868,-2.66031 10.76714,-25.72956 -1.07497,-42.64301 -0.44401,-93.1141 1.36058,-108.83449 8.03221,-69.97121 33.11244,-153.6099 57.33577,-191.20589 1.73682,-2.69564 0.65199,-1.87507 -20.69635,15.65477 -21.38772,17.56219 -48.48725,44.12997 -66.44206,65.13833 -16.531,19.34241 -39.04188,52.1232 -53.1601,77.41279 -12.90214,23.11125 -34.69798,71.57168 -38.34253,85.25 -0.62282,2.3375 -1.47457,4.25 -1.89279,4.25 -0.41821,0 -2.95714,-5.9625 -5.64206,-13.25 C 266.75288,424.66781 241.06759,380.02769 200.63029,331 c -20.58276,-24.9553 -45.38953,-48.57406 -86.04786,-81.92698 -1.46335,-1.20042 -1.27413,-0.50711 0.79883,2.92698 19.64486,32.5439 37.80806,89.09824 49.5648,154.3288 6.49341,36.02771 8.1238,69.75318 6.09811,126.14314 -1.09692,30.53566 -1.06584,34.84604 0.26595,36.87861 0.97301,1.48501 5.29037,3.80811 12.16873,6.54781 17.43493,6.94445 28.62319,14.27265 41.59458,27.24403 8.79404,8.79404 19.05576,22.21782 16.67657,21.81532 -0.1375,-0.0233 -3.625,-2.73524 -7.75,-6.02662 z m 2.85437,-16.85377 c -17.99013,-16.54836 -33.93754,-26.36988 -55.57699,-34.22816 -5.07244,-1.84204 -9.36441,-3.79916 -9.53771,-4.34916 -0.1733,-0.55 -0.14643,-4.05539 0.0597,-7.78975 0.43744,-7.9247 -0.57498,-7.80945 13.70062,-1.55967 18.74412,8.20605 33.55588,19.14657 45.99768,33.97559 7.81421,9.31353 18.10993,23.91943 16.78279,23.80872 -0.42926,-0.0358 -5.571,-4.47171 -11.4261,-9.85757 z M 339,611.58009 c 0,-1.41817 9.3578,-15.1732 15.12426,-22.23117 7.72192,-9.45136 16.52796,-17.40451 26.62807,-24.04904 9.62176,-6.32984 25.71208,-14.17643 30.74527,-14.9932 L 415,549.73832 v 6.99312 6.99312 l -10.75,4.2676 c -22.87406,9.08069 -38.5563,18.72447 -52.29018,32.1558 C 341.77693,610.10653 339,612.55611 339,611.58009 Z m 208.5,-49.71644 c -11.05172,-8.73278 -24.62402,-14.77677 -40.34668,-17.96709 -13.60008,-2.75963 -19.94793,-2.53 -26.93184,0.97426 -9.68813,4.86113 -18.15377,7.59689 -19.46148,6.28918 -0.62878,-0.62878 -1.32775,-5.08452 -1.55325,-9.90162 L 458.79674,532.5 464.12699,529 c 10.60436,-6.96314 14.73294,-16.09315 11.52916,-25.49574 l -1.55899,-4.5754 3.20142,-2.70983 c 1.76078,-1.49041 8.63439,-8.01022 15.27468,-14.48847 11.83872,-11.54982 12.10784,-11.74042 13.85369,-9.81128 9.76119,10.78599 36.93305,-11.16276 67.05989,-54.16928 3.75652,-5.3625 7.20875,-9.75 7.6716,-9.75 1.54627,0 0.86597,5.66994 -1.57895,13.15974 -5.35841,16.41505 -15.36527,37.55812 -26.73514,56.48753 -7.09986,11.8204 -9.80185,20.54094 -10.48901,33.85273 -0.8097,15.68577 1.70961,27.29405 9.09986,41.92961 3.0354,6.01128 5.41224,11.01788 5.28186,11.12577 -1.94552,1.6099 -4.87265,0.75692 -9.23706,-2.69173 z m -514.242558,1.99379 c -0.856745,-0.85674 0.197867,-3.67096 4.215875,-11.25 6.802472,-12.83129 9.477216,-21.6416 10.216342,-33.65152 C 48.762873,501.5175 46.349996,492.89965 34.400637,471.49275 17.651122,441.48653 4.0073639,407 8.8856453,407 c 0.487105,0 4.1561667,4.8375 8.1534697,10.75 19.229735,28.44313 38.834399,49.20588 52.18119,55.26363 5.582695,2.53384 8.879295,2.48246 12.278512,-0.19136 l 2.768534,-2.17773 8.136411,8.42773 c 4.475026,4.63525 10.966008,11.07202 14.424408,14.30394 l 6.28799,5.87621 -1.55808,3.89403 c -2.39688,5.99038 -1.98263,10.79254 1.3897,16.11016 2.94752,4.64775 11.31108,11.67185 13.95328,11.7186 1.14932,0.0203 1.28975,1.85183 0.78157,10.19322 -0.34071,5.59263 -1.07861,10.62755 -1.63975,11.18869 -1.22595,1.22595 -9.69305,-2.07099 -18.43819,-7.17949 l -5.89532,-3.44377 -11.104684,0.50633 c -8.383506,0.38225 -13.06507,1.16266 -19.104686,3.18469 -10.003965,3.34927 -22.125983,9.44546 -30.179194,15.17719 -6.977253,4.96593 -6.5324,4.78634 -8.063364,3.25537 z M 118.5,500.77314 C 99.111224,485.32698 76.080537,459.4823 64.789458,440.5 55.758558,425.31746 49.638679,410.75848 45.032966,393.5 39.675284,373.42375 38.62626,365.23888 38.560561,343 c -0.07411,-25.08473 1.620459,-35.87987 9.363121,-59.64733 3.505967,-10.76218 12.945993,-30.36543 15.002645,-31.15464 3.185834,-1.22252 14.904635,15.74183 23.043255,33.35784 l 3.7625,8.14392 -3.339843,13.28967 c -4.267437,16.98069 -5.891027,34.52239 -4.417967,47.73291 3.829524,34.34346 16.13614,63.01453 39.482308,91.98304 l 6.61286,8.2054 0.62491,26.5446 c 0.37046,15.73603 0.25452,26.53299 -0.28472,26.5161 -0.5003,-0.0157 -4.95963,-3.25493 -9.90963,-7.19837 z M 458.00354,496.75 c 0.002,-6.1875 0.45804,-18.37455 1.01353,-27.08234 l 1.00997,-15.83235 4.97977,-5.66765 c 18.58175,-21.14858 32.82636,-49.98477 36.51411,-73.91766 l 0.65488,-4.25 -12.3379,-0.0153 c -6.78585,-0.008 -12.93022,-0.39091 -13.65416,-0.84997 -1.52704,-0.96831 -0.65433,-4.93198 6.0295,-27.38472 l 4.09316,-13.75 30.3468,-0.16667 c 16.69074,-0.0917 31.1343,-0.20416 32.0968,-0.25 1.58061,-0.0753 1.77759,1.36861 2.03499,14.91667 1.04396,54.94652 -22.89923,106.182 -68.55481,146.69883 C 472.09755,498.19099 459.75613,508 458.57508,508 c -0.31629,0 -0.57349,-5.0625 -0.57154,-11.25 z M 169,420.29343 c 0,-2.58608 -5.19199,-31.11013 -8.00711,-43.98992 l -2.99876,-13.72 12.77015,-23.04176 C 177.78787,326.86879 183.99434,316.5 184.55645,316.5 186.20124,316.5 213,347.63115 213,349.54183 c 0,1.09113 -17.33101,30.21841 -28.72664,48.2793 C 171.37145,418.26931 169,421.75851 169,420.29343 Z M 412.00749,411.75 C 404.87563,400.8543 388,372.75233 388,371.77177 388,371.3473 396.775,371 407.5,371 c 15.56393,0 19.5,0.2686 19.5,1.33069 0,0.73187 -1.54377,8.97837 -3.43061,18.32554 -1.88683,9.34717 -3.74495,19.77336 -4.12916,23.16931 -0.38421,3.39596 -0.99873,6.17446 -1.3656,6.17446 -0.36687,0 -3.09708,-3.7125 -6.06714,-8.25 z m -184.77927,-29.37808 4.15579,-6.62808 2.30303,2.87808 c 1.26666,1.58294 2.30526,3.16099 2.30799,3.50676 0.003,0.34577 -1.45753,1.21184 -3.24503,1.9246 -1.7875,0.71275 -4.44447,2.11734 -5.90437,3.12132 -1.4599,1.00397 -2.90611,1.8254 -3.21379,1.8254 -0.30768,0 1.31069,-2.98264 3.59638,-6.62808 z M 277.90651,364.2792 C 276.10598,361.10064 271.06305,353.14757 266.7,346.60572 l -7.93282,-11.89429 1.60023,-3.35571 L 261.96764,328 h 35.51618 c 19.5339,0 35.51618,0.23189 35.51618,0.51531 0,0.28343 -2.27863,3.64815 -5.06362,7.47716 -2.78499,3.82902 -8.79466,12.93463 -13.35482,20.23469 l -8.29121,13.27284 -12.55507,0.2792 -12.55508,0.27921 z M 361,368.50362 c 0,-0.83812 9.8813,-14.46215 18.13475,-25.00362 13.40291,-17.11847 11.2381,-15.5 20.73227,-15.5 h 8.29189 l -0.58622,-3.25 -0.58623,-3.25 1.6882,3.25 1.68819,3.25 h 14.31858 c 8.59152,0 14.31857,0.38828 14.31857,0.97076 0,0.53392 -1.99336,7.84642 -4.42969,16.25 -2.43633,8.40358 -4.92867,17.19174 -5.53854,19.52924 L 427.92291,369 H 394.46146 C 376.05766,369 361,368.77663 361,368.50362 Z m 160.326,-62.80191 -18.17399,-0.96063 -1.72812,-6.38417 -1.72811,-6.38418 3.7844,-8.49313 c 7.40993,-16.62972 18.8152,-32.1789 22.97625,-31.32428 3.66278,0.75229 14.53401,25.34379 18.95627,42.88045 1.42301,5.64303 2.5873,10.64349 2.5873,11.11214 0,0.94056 -0.64093,0.92984 -26.674,-0.4462 z M 229.60246,297.4705 c -3.24365,-4.08304 -9.94193,-11.73296 -14.88506,-16.99983 l -8.98751,-9.57613 7.06209,-14.69727 c 11.12363,-23.14994 24.01429,-54.07662 31.03487,-74.45744 1.47023,-4.2681 3.34815,-7.97388 4.17315,-8.23507 0.825,-0.2612 7.575,-1.15229 15,-1.9802 15.30485,-1.70656 30,-1.98879 30,-0.57618 0,2.90352 -10.3037,32.2459 -18.80487,53.55162 -9.49776,23.80336 -36.22022,80.55481 -37.87999,80.4471 -0.44833,-0.0291 -3.46903,-3.39356 -6.71268,-7.4766 z m 109.91498,-13.81658 c -12.09006,-24.97187 -18.86886,-40.62437 -29.50793,-68.1348 -9.54814,-24.68952 -15.29922,-41.77628 -14.84862,-44.11602 0.2904,-1.50794 1.30874,-1.73785 6.84015,-1.54434 14.72056,0.51499 36.52082,3.10967 38.99984,4.64178 0.46541,0.28764 1.60869,2.88019 2.54063,5.76122 2.96717,9.17284 18.2886,47.17835 25.59533,63.49042 3.8797,8.6613 8.20834,18.33208 9.61919,21.49062 l 2.5652,5.74279 -6.58973,6.75721 C 366.9606,285.71118 352,303.15016 352,304.24 c 0,0.418 -0.48328,0.76 -1.07396,0.76 -0.59068,0 -5.72455,-9.60573 -11.4086,-21.34608 z"
       id="path1" />
  </g>
</svg>
