<?xml version="1.0" encoding="UTF-8" standalone="no"?>
<!-- Created with Inkscape (http://www.inkscape.org/) -->

<svg
   version="1.1"
   id="svg1"
   width="918"
   height="1152"
   viewBox="0 0 918 1152"
   sodipodi:docname="logoSDQ_white.svg"
   inkscape:version="1.4.3 (0d15f75, 2025-12-25)"
   xmlns:inkscape="http://www.inkscape.org/namespaces/inkscape"
   xmlns:sodipodi="http://sodipodi.sourceforge.net/DTD/sodipodi-0.dtd"
   xmlns="http://www.w3.org/2000/svg"
   xmlns:svg="http://www.w3.org/2000/svg">
  <defs
     id="defs1" />
  <sodipodi:namedview
     id="namedview1"
     pagecolor="#30ffff"
     bordercolor="#000000"
     borderopacity="0.25"
     inkscape:showpageshadow="2"
     inkscape:pageopacity="0.0"
     inkscape:pagecheckerboard="0"
     inkscape:deskcolor="#d1d1d1"
     inkscape:zoom="0.67100694"
     inkscape:cx="459.01164"
     inkscape:cy="576"
     inkscape:window-width="1920"
     inkscape:window-height="991"
     inkscape:window-x="-9"
     inkscape:window-y="-9"
     inkscape:window-maximized="1"
     inkscape:current-layer="g1" />
  <g
     inkscape:groupmode="layer"
     inkscape:label="Image"
     id="g1">
    <path
       style="fill:#ffffff;fill-opacity:1"
       d="m 473.38529,1073.8106 c -23.28958,-24.2815 -62.25625,-47.8549 -98.70547,-59.7131 -25.91465,-8.431 -47.59573,-12.0851 -86.27573,-14.54082 C 239.86189,996.47478 208.38169,989.30437 178.5,974.52324 96.742166,934.08131 70.855747,861.96412 97.600093,749.14351 102.37102,729.01742 105.49779,718.53858 118.97771,677.5 c 18.65944,-56.80727 23.45394,-75.51807 27.67412,-108 2.54299,-19.57288 2.53161,-66.35839 -0.0207,-85 -4.25799,-31.09992 -11.38238,-55.11842 -25.02801,-84.37708 -8.79511,-18.85828 -10.9693,-24.0901 -10.29242,-24.76699 0.32077,-0.32076 4.54457,0.13579 9.38624,1.01456 10.20844,1.85285 35.88562,4.99234 55.30303,6.76178 17.62218,1.60585 69.79993,1.60131 87,-0.008 19.59422,-1.83281 44.72472,-5.58711 60.29032,-9.0069 53.3906,-11.72999 104.25315,-35.42991 144.25249,-67.21593 l 7.60824,-6.04598 7.17447,5.88902 c 36.85273,30.24981 94.07197,56.32544 148.67448,67.75309 15.18544,3.17812 40.9185,6.98974 58.5,8.6651 19.37412,1.84618 74.90849,1.54381 97,-0.52813 16.39517,-1.53769 50.21855,-5.82869 57.63331,-7.31164 l 3.02311,-0.60462 -5.95112,11.89064 c -17.8384,35.64199 -25.35171,57.61142 -30.59364,89.45777 -6.35138,38.58655 -5.78482,70.28467 2.01848,112.93287 4.61546,25.22535 10.45863,46.07162 25.36699,90.5 22.88554,68.20117 30.97197,107.08486 30.98675,149 0.009,26.80554 -6.11232,55.94454 -15.77454,75.08529 -11.19755,22.18223 -32.11715,44.75136 -55.36012,59.72533 -30.34144,19.54707 -67.66754,31.16181 -111.34922,34.64846 -55.82904,4.45622 -63.76397,5.48092 -86,11.10512 -41.6964,10.5465 -82.79764,32.3675 -114.11471,60.5847 l -9.11472,8.2125 z M 486,1039.4291 c 15.35174,-12.2663 43.47022,-28.7952 64.74306,-38.0581 34.28052,-14.92676 59.5252,-20.56677 111.25694,-24.85632 43.69141,-3.62285 63.65207,-6.91856 82.76909,-13.66603 76.59282,-27.03391 108.47107,-78.96139 99.70709,-162.41602 C 841.17789,769.02476 835.00581,744.63318 814.50783,682 790.71576,609.30147 784.49349,577.04909 784.50808,526.5 c 0.01,-34.71097 2.0831,-53.30334 9.00795,-80.78789 2.94724,-11.69751 9.84617,-32.36008 12.72438,-38.11002 l 1.95115,-3.89791 -6.34578,0.62851 c -23.63192,2.34057 -38.26056,2.99682 -67.34578,3.02119 -33.78404,0.0283 -49.76477,-0.91834 -75.35467,-4.46374 C 593.81198,393.83841 531.9439,370.44403 484.31892,336.78243 479.81932,333.6021 475.68416,331 475.12968,331 c -0.55448,0 -4.47802,2.48951 -8.71896,5.53225 -16.73953,12.01006 -43.69229,27.2159 -63.51319,35.83199 -43.43346,18.8804 -86.18455,29.24655 -139.39753,33.80067 -20.42241,1.7478 -72.02999,1.43809 -94.885,-0.56944 -10.38674,-0.91235 -19.04567,-1.49814 -19.24205,-1.30176 -0.19638,0.19639 1.18536,4.18217 3.07052,8.85731 7.12709,17.67488 13.70042,45.10859 17.69478,73.84898 1.79111,12.88749 1.81334,64.92951 0.0337,79 -4.80034,37.95404 -13.27633,71.82492 -31.15542,124.5 -20.26512,59.70475 -28.35285,98.51465 -28.34154,136 0.013,43.1661 10.8837,72.45933 36.19369,97.5313 23.0971,22.87988 54.19346,38.39168 92.13128,45.95784 16.97768,3.38596 24.69754,4.30596 58.99283,7.03042 42.14227,3.34783 62.89768,7.33993 91.14921,17.53168 27.87371,10.05546 58.34658,27.03876 80.35796,44.78556 4.4,3.5475 8.45,6.1881 9,5.868 0.55,-0.3202 3.925,-2.9192 7.5,-5.7757 z m -14.5,-20.0931 c -23.37941,-17.7402 -59.32454,-35.66449 -91.74092,-45.74725 -24.3549,-7.57534 -47.24281,-11.27204 -87.25908,-14.0935 -35.60922,-2.51073 -48.59164,-4.56835 -70.25019,-11.13415 -43.26643,-13.11624 -73.77115,-37.94635 -86.87266,-70.71227 -5.06815,-12.67507 -7.42396,-25.73195 -8.07633,-44.76247 -1.27829,-37.28956 6.09684,-74.00576 27.77971,-138.29774 18.54566,-54.98985 27.77047,-93.39243 31.96965,-133.08862 0.63998,-6.05 1.36706,-11.3375 1.61573,-11.75 0.64046,-1.06243 578.09644,-0.94354 578.75322,0.11916 0.29545,0.47803 1.22821,7.10189 2.0728,14.71968 4.15976,37.51864 11.50228,68.09214 29.63837,123.41116 23.65257,72.14548 30.16363,102.00256 30.09425,138 -0.0593,30.76485 -5.81191,52.24901 -19.3141,72.13186 -14.24909,20.98272 -43.77456,40.50139 -75.91045,50.1828 -19.87626,5.98803 -33.00562,8.11736 -66,10.70397 -30.62576,2.40092 -46.4773,4.30303 -62.51462,7.50146 -42.98956,8.5737 -88.26426,28.6707 -125.98538,55.92371 -1.83347,1.3246 -2.49959,1.0658 -8,-3.1078 z m 15.30458,-29.15424 c 12.03277,-7.90114 43.61515,-23.76343 60.69542,-30.48436 12.41774,-4.88626 26.31845,-9.3796 39.25,-12.68738 L 591,945.92291 V 759.46146 573 H 477.5 364 v 186.5 c 0,152.53732 0.23718,186.5 1.30243,186.5 2.14421,0 25.60196,6.79554 34.19757,9.90679 24.82223,8.98461 58.32196,25.83647 74.5,37.47683 1.925,1.38507 3.59987,2.54037 3.72194,2.56734 0.12207,0.027 4.20926,-2.56917 9.08264,-5.7692 z M 341,757 V 573 h -65.92054 -65.92055 l -0.54231,2.75 c -0.29827,1.5125 -1.49906,8.6 -2.66842,15.75 -4.91659,30.0622 -12.49041,58.16401 -31.88017,118.28776 -13.84901,42.94299 -17.09486,55.03464 -21.0291,78.33916 -8.42836,49.92536 -2.46987,82.5513 19.27097,105.51899 19.46485,20.56327 47.80504,33.32566 87.28234,39.30571 7.09928,1.0754 24.60778,2.9113 38.90778,4.07977 14.3,1.16847 28.475,2.48455 31.5,2.92461 3.025,0.44006 6.7375,0.85499 8.25,0.92206 L 341,941 Z m 284,183.02649 c 4.675,-0.52641 17.275,-1.66976 28,-2.54078 43.68686,-3.54798 57.87704,-5.82538 79,-12.67883 14.59387,-4.73505 21.99343,-8.29314 34.89037,-16.77712 20.86533,-13.72582 32.70301,-30.80538 37.49502,-54.09831 7.0737,-34.38369 -0.82778,-82.5654 -25.3257,-154.43145 -15.24483,-44.72156 -26.22097,-87.34777 -30.19156,-117.25 L 747.63985,573 H 680.81993 614 v 184 c 0,146.53771 0.2545,183.99833 1.25,183.9918 0.6875,-0.005 5.075,-0.43891 9.75,-0.96531 z m -170.73044,-408.90734 -6.23044,-8.84762 -6.92051,-0.49516 c -9.47281,-0.67777 -18.88724,-5.09383 -23.01905,-10.79762 -5.37052,-7.4138 -7.29267,-14.16386 -7.85271,-27.57662 -1.03229,-24.72272 4.51163,-38.4298 18.01151,-44.53258 4.71239,-2.1303 6.65523,-2.36955 19.24164,-2.36955 12.50139,0 14.53522,0.24659 19,2.30361 2.75,1.26699 6.29402,3.51699 7.8756,5 4.06506,3.81173 8.26917,13.16365 9.68491,21.54379 1.47724,8.74422 0.6832,27.09834 -1.47948,34.19784 -2.19577,7.20816 -7.10037,14.08877 -12.15361,17.05016 l -4.3558,2.55267 7.08062,8.9762 c 3.89434,4.93691 6.87488,9.18194 6.62343,9.43339 -0.49657,0.49657 -14.02286,2.37166 -17.27567,2.39485 -1.38733,0.01 -3.90859,-2.69606 -8.23044,-8.83336 z m 2.49326,-26.2031 c 5.63924,-3.52177 8.96772,-17.14916 7.79547,-31.91605 -1.31197,-16.52709 -6.54781,-22.67514 -18.57016,-21.80552 -7.22794,0.52282 -10.60622,2.71901 -13.29021,8.63986 -1.81219,3.99768 -2.1192,6.59846 -2.14438,18.16566 -0.0176,8.07416 0.47797,15.18703 1.23294,17.69748 1.4085,4.68355 6.05272,9.90815 9.472,10.6557 3.77222,0.82472 13.29611,-0.0581 15.50434,-1.43713 z m -255.13794,15.61019 c -4.33131,-0.75706 -8.29835,-1.79971 -8.81563,-2.31699 -0.56396,-0.56396 -0.61107,-3.29643 -0.11766,-6.82488 L 193.51445,505.5 h 18.32457 c 18.0497,0 18.35335,-0.0354 20.24278,-2.36078 5.04133,-6.2045 0.68559,-12.51111 -11.0818,-16.04519 -10.57299,-3.17537 -21.35785,-8.54217 -24.37749,-12.1308 -3.48169,-4.13776 -4.93812,-10.15025 -4.37752,-18.07146 0.66243,-9.35997 3.5724,-14.16314 10.70197,-17.66459 5.3969,-2.6505 6.03104,-2.72617 22.55304,-2.69134 10.44128,0.022 18.61107,0.51144 21.17583,1.26858 l 4.17583,1.23272 -0.56388,5.73143 c -0.31014,3.15229 -0.76639,5.95643 -1.01389,6.23143 -0.2475,0.275 -8.09829,0.5 -17.44621,0.5 -16.65437,0 -17.03474,0.0475 -18.91195,2.36078 -2.38939,2.94449 -2.46045,7.25379 -0.16573,10.05042 1.0449,1.27344 6.30604,3.70496 13.05769,6.03481 15.1571,5.2304 20.09894,7.94325 23.69231,13.006 2.88803,4.06898 3,4.63056 3,15.04583 0,10.55542 -0.0744,10.91272 -3.05108,14.66063 -1.67809,2.11284 -5.27809,4.9583 -8,6.32324 -4.4459,2.22946 -6.32109,2.50403 -18.44892,2.70135 -8.01645,0.13043 -16.69879,-0.33946 -21.37512,-1.15682 z m 68.42398,0.45396 C 265.33574,519.87418 264,517.62809 264,510.80887 264,502.84545 265.88141,501 274,501 c 8.54746,0 10.36257,1.96508 9.81133,10.62199 -0.2439,3.83053 -0.99098,6.95381 -1.85952,7.77406 -1.93372,1.82624 -7.63688,2.58526 -11.90295,1.58415 z M 518.5,520.65865 c -6.60821,-2.18485 -10.11648,-4.39266 -13.77873,-8.67118 C 498.66912,504.9169 498,500.40685 498,466.6844 V 437 l 9.75,0.002 9.75,0.002 0.14476,29.97541 c 0.13238,27.41215 0.30631,30.25526 2.03402,33.248 5.20064,9.00858 23.19858,9.09701 26.94425,0.13238 C 547.6886,497.80952 548,490.27255 548,467.03212 V 437 h 10.0635 10.0635 l -0.35944,31.75 c -0.40319,35.61436 -0.84826,38.26403 -7.55353,44.9693 -6.07219,6.07219 -10.98369,7.62338 -25.21403,7.96328 -8.42815,0.20132 -13.80299,-0.13223 -16.5,-1.02393 z m 194.23447,0.3106 c -9.82406,-2.46401 -17.07572,-9.03078 -20.86005,-18.8899 -1.6583,-4.32028 -2.2537,-8.56908 -2.6384,-18.82786 -0.73477,-19.59403 1.71684,-29.76603 9.15967,-38.00435 5.77623,-6.39359 11.99182,-8.57869 25.74698,-9.05137 19.39195,-0.66638 28.44909,3.4709 34.59794,15.80423 9.09324,18.23921 6.06391,51.94035 -5.58845,62.17126 -6.50728,5.71347 -11.32579,7.17418 -24.65216,7.47319 -6.6,0.14808 -13.69449,-0.15576 -15.76553,-0.6752 z m 21.85942,-15.87243 c 3.1959,-1.45143 4.48277,-2.81754 5.86674,-6.22804 4.05276,-9.98714 3.81125,-31.54425 -0.45206,-40.35108 -1.59075,-3.28604 -3.06259,-4.72228 -6.07425,-5.9273 -7.77838,-3.11229 -16.9083,-1.25721 -20.56245,4.17802 -4.89393,7.27931 -5.79299,31.96981 -1.51617,41.63826 1.63084,3.68679 2.9491,5.05689 6.35115,6.60093 5.39899,2.45036 11.11946,2.4815 16.38704,0.0892 z M 298,479.08056 V 437 h 21.39466 c 18.89369,0 22.19604,0.24555 28.25,2.10056 13.49572,4.13525 19.52556,14.10333 20.92657,34.59423 1.22506,17.9175 -2.88447,32.99364 -10.85278,39.81421 -7.17094,6.13806 -10.55318,6.81085 -36.46845,7.25429 L 298,521.16113 Z m 40.82093,25.37441 c 7.60026,-3.04102 10.5566,-14.15963 9.07175,-34.11828 -1.09115,-14.66675 -5.2183,-18.33254 -20.64268,-18.33514 L 318,452 v 27 27 h 8.47976 c 5.31457,0 9.92109,-0.5767 12.34117,-1.54503 z m 42.99976,15.50449 c -3.56879,-2.08206 -3.19675,-15.82837 0.49187,-18.1738 0.65309,-0.41527 3.77494,-0.76193 6.93744,-0.77035 7.8334,-0.0209 9.75,1.89814 9.75,9.76218 0,8.52779 -1.55449,10.23016 -9.3067,10.1921 -3.40632,-0.0167 -6.94899,-0.47128 -7.87261,-1.01013 z M 584,479 v -42 h 9.5 9.5 v 42 42 h -9.5 -9.5 z m 54,7.5 V 452 h -12 -12 v -7.5 -7.5 h 34.5 34.5 v 7.5 7.5 H 670.5 658 V 486.5 521 H 648 638 Z M 803.28928,331.4155 C 793.27338,324.03698 784.55269,318 783.90997,318 c -0.64273,0 -5.2729,3.00726 -10.28928,6.6828 -5.01638,3.67554 -13.07693,9.5818 -17.91234,13.12502 -4.83541,3.54321 -9.03704,6.19682 -9.33696,5.89691 -0.29991,-0.29992 2.2178,-9.01867 5.59492,-19.37502 3.37712,-10.35634 6.54813,-20.08238 7.04669,-21.61342 0.88403,-2.71482 0.5053,-3.08032 -15.30327,-14.76876 C 734.79438,281.35575 726.15,274.87003 724.5,273.53481 l -3,-2.42767 23.78138,-0.0536 c 18.10532,-0.0408 23.87747,-0.35192 24.18393,-1.30357 0.2214,-0.6875 3.43976,-10.82001 7.15192,-22.5167 3.71216,-11.69668 7.06707,-20.92168 7.45536,-20.5 0.38829,0.42169 1.46177,3.4667 2.38551,6.7667 0.92374,3.3 3.91788,13.0875 6.65365,21.75 l 4.97413,15.75 h 23.45706 c 12.90138,0 23.43027,0.3375 23.39753,0.75 -0.0327,0.4125 -8.32981,6.825 -18.43792,14.25 -15.16271,11.13791 -18.28769,13.84994 -17.8601,15.5 0.28506,1.1 3.43579,11.15883 7.00163,22.35296 3.56583,11.19413 6.34217,20.4936 6.16963,20.6655 -0.17254,0.1719 -8.50853,-5.72443 -18.52443,-13.10296 z M 134,343.49217 c 0,-0.2793 3.18491,-10.21939 7.07758,-22.08909 3.89266,-11.86969 6.92863,-21.7302 6.7466,-21.91223 -0.18203,-0.18204 -7.32319,-5.43554 -15.86924,-11.67446 C 113.6263,274.43584 111,272.4065 111,271.62451 c 0,-0.32321 10.45076,-0.70844 23.2239,-0.85608 l 23.2239,-0.26843 7.0261,-22.19418 c 3.86436,-12.2068 7.31592,-21.8818 7.67014,-21.5 0.69295,0.7469 8.20589,23.76806 11.88783,36.42672 l 2.24911,7.73254 24.00891,0.26746 L 234.2988,271.5 216.00354,285 c -10.06239,7.425 -18.68495,13.75485 -19.16123,14.06633 -0.71946,0.47051 8.38277,31.51897 12.11415,41.32236 1.22412,3.2161 0.74938,4.39364 -1.18229,2.93256 C 194.72812,333.45347 172.94105,318 172.07501,318 c -0.62833,0 -9.17818,5.85 -18.99966,13 C 136.21791,343.27216 134,344.72464 134,343.49217 Z m 471,-87.64049 c 0,-0.21626 3.32863,-10.65683 7.39695,-23.20127 l 7.39694,-22.80808 -13.14694,-9.71723 c -7.23082,-5.34448 -15.71738,-11.49651 -18.85901,-13.67117 -3.14163,-2.17466 -5.72913,-4.29143 -5.75,-4.70393 -0.0209,-0.4125 10.50674,-0.75 23.39467,-0.75 h 23.43261 l 0.65275,-2.25 c 2.38155,-8.2092 13.83808,-42.72729 14.09566,-42.46971 0.33049,0.33049 11.92339,35.8157 13.54224,41.45203 l 0.92837,3.23231 24.03678,0.26769 24.03677,0.26768 -18.24814,13.5 c -10.03647,7.425 -18.7085,13.80503 -19.27116,14.17785 -0.98258,0.65104 5.07543,21.77876 10.95585,38.20922 1.35567,3.78788 2.26322,7.0887 2.01678,7.33514 -0.24645,0.24645 -3.74727,-1.9897 -7.7796,-4.96922 C 656.08644,236.64104 644.06288,228 643.56337,228 c -0.42817,0 -32.20355,23.21013 -37.31337,27.25533 -0.6875,0.54426 -1.25,0.81262 -1.25,0.59635 z m -332,-1.61056 c 0,-1.23145 8.47931,-28.24479 11.62627,-37.0389 1.43632,-4.01379 2.4455,-7.43159 2.24261,-7.59511 -0.20288,-0.16353 -8.90362,-6.55453 -19.33497,-14.20222 L 248.56783,181.5 l 23.87891,-0.5 23.87891,-0.5 7.07524,-22.21194 c 3.89138,-12.21657 7.37627,-21.89157 7.7442,-21.5 0.60836,0.64743 8.00561,22.92496 12.52223,37.71194 l 1.83268,6 23.93594,0.5 23.93593,0.5 -19.07624,14.28052 -19.07625,14.28052 4.35938,13.71948 c 2.39766,7.54571 5.69477,17.65698 7.3269,22.46948 1.63214,4.8125 2.71685,8.75 2.41048,8.75 -0.53914,0 -26.02227,-18.36512 -33.5075,-24.1481 C 313.77839,229.28335 311.71152,228 311.2156,228 c -0.49593,0 -8.74042,5.75737 -18.32109,12.79416 C 272.91994,255.46505 273,255.41093 273,254.24112 Z M 437,205.046 c 0,-0.58962 3.13051,-10.61067 6.95668,-22.269 3.82617,-11.65834 6.86367,-21.25719 6.75,-21.33079 -1.5474,-1.00187 -32.08043,-23.47687 -34.45888,-25.36477 L 412.99561,133.5 436.7203,133 l 23.7247,-0.5 6.97678,-21.75 C 471.25901,98.7875 474.66921,89 475,89 c 0.33079,0 3.74099,9.7875 7.57822,21.75 l 6.97678,21.75 23.88536,0.5 23.88535,0.5 -10.91286,8.10318 c -8.48607,6.30122 -25.57276,18.81421 -27.15939,19.88948 -0.13559,0.0919 2.93138,9.96416 6.81551,21.93837 3.88412,11.97422 6.90705,21.92628 6.71763,22.1157 -0.33145,0.33146 -16.92702,-11.2711 -31.11219,-21.75164 l -6.82558,-5.04301 -3.8733,2.87396 c -9.44758,7.01003 -31.59097,23.08225 -32.72553,23.753 -0.6875,0.40645 -1.25,0.25658 -1.25,-0.33304 z"
       id="path1" />
  </g>
</svg>
