<?xml version="1.0" encoding="UTF-8" standalone="no"?>
<!-- Created with Inkscape (http://www.inkscape.org/) -->

<svg
   version="1.1"
   id="svg1"
   width="583.8371"
   height="309.90744"
   viewBox="0 0 583.8371 309.90744"
   sodipodi:docname="mag.svg"
   inkscape:version="1.4.3 (0d15f75, 2025-12-25)"
   xmlns:inkscape="http://www.inkscape.org/namespaces/inkscape"
   xmlns:sodipodi="http://sodipodi.sourceforge.net/DTD/sodipodi-0.dtd"
   xmlns="http://www.w3.org/2000/svg"
   xmlns:svg="http://www.w3.org/2000/svg">
  <defs
     id="defs1" />
  <sodipodi:namedview
     id="namedview1"
     pagecolor="#ff6aff"
     bordercolor="#000000"
     borderopacity="0.25"
     inkscape:showpageshadow="2"
     inkscape:pageopacity="0.0"
     inkscape:pagecheckerboard="0"
     inkscape:deskcolor="#d1d1d1"
     inkscape:zoom="0.31672026"
     inkscape:cx="400.98477"
     inkscape:cy="99.456853"
     inkscape:window-width="1920"
     inkscape:window-height="991"
     inkscape:window-x="-9"
     inkscape:window-y="-9"
     inkscape:window-maximized="1"
     inkscape:current-layer="g1" />
  <g
     inkscape:groupmode="layer"
     inkscape:label="Image"
     id="g1"
     transform="translate(-1089.8177,-52.092551)">
    <path
       style="fill:#ffffff;fill-opacity:1"
       d="m 1306.3956,351.25 c -12.9484,-15.65934 -31.1057,-37.1022 -35.5456,-41.97766 l -3.85,-4.22765 v -42.35857 c 0,-70.02426 -1.1015,-121.02164 -2.5807,-119.48707 -1.4149,1.46777 -19.5936,28.20127 -37.7757,55.55271 -6.6732,10.03847 -12.5854,18.1085 -13.1383,17.9334 -1.1408,-0.3613 -4.0933,-4.30279 -15.4949,-20.68516 -15.8371,-22.75558 -30.5247,-42.94625 -31.2604,-42.97287 -0.4125,-0.0149 -0.8149,5.48537 -0.8943,12.22287 -0.079,6.7375 -0.4169,39.7 -0.75,73.25 l -0.6057,61 h -21 -21 l 0.3664,-102.56735 0.3663,-102.567357 L 1106.5252,73.432647 1089.8177,52.5 l 7.3411,-0.3323 c 4.0377,-0.182765 19.1078,-0.02053 33.4893,0.360526 l 26.148,0.692826 4.8481,6.639474 c 4.6715,6.397741 14.477,20.28815 34.8648,49.389474 5.2982,7.5625 9.781,13.75 9.9619,13.75 0.1809,0 3.461,-5.0625 7.2891,-11.25 8.0855,-13.068604 35.9503,-55.856601 37.1736,-57.082134 0.9112,-0.912784 3.9935,2.993564 28.6677,36.332134 9.1589,12.375 20.6249,27.7946 25.4801,34.26578 l 8.8276,11.76578 0.8755,45.23422 c 0.9003,46.51678 1.5506,179.73422 0.8773,179.73422 -0.2075,0 -4.3773,-4.8375 -9.2662,-10.75 z M 1632,331 v -31 l -3.25,-0.13845 c -1.7875,-0.0762 -19.8626,-0.41365 -40.1668,-0.75 L 1551.6663,298.5 1546.2113,288 c -3.0003,-5.775 -8.3079,-15.69686 -11.7947,-22.04859 l -6.3397,-11.54859 -0.4855,-17.45141 c -0.267,-9.59827 -0.7757,-46.02641 -1.1303,-80.95141 l -0.6448,-63.5 14.3419,-19 14.3418,-19 15.5,-0.617649 c 18.9619,-0.755601 100,-1.072806 100,-0.391428 0,0.425727 -18.0356,27.06998 -26.549,39.221126 l -2.951,4.212048 -33.8877,0.03795 -33.8877,0.03795 0.6415,46.750003 c 0.3528,25.7125 0.9248,61.0375 1.2711,78.5 l 0.6296,31.75 h 25.1614 25.1615 l -0.3062,-15.75 c -0.1684,-8.6625 -0.5653,-21.15673 -0.882,-27.76497 l -0.5758,-12.01496 -9.3813,-11.98504 c -5.1598,-6.59176 -12.3431,-15.75002 -15.9629,-20.35166 -3.6199,-4.60165 -6.4354,-8.51282 -6.2567,-8.69148 0.1786,-0.17867 17.6786,-0.63785 38.8888,-1.0204 l 38.564,-0.69555 0.6715,28.38703 c 1.3367,56.50189 1.8827,76.73391 2.5878,95.88703 l 0.7179,19.5 -16.9579,26 c -21.4909,32.94986 -23.8562,36.5 -24.3187,36.5 -0.208,0 -0.3782,-13.95 -0.3782,-31 z m -278.2338,-49.76985 c -5.3536,-10.30158 -11.6103,-22.1799 -13.9039,-26.39626 l -4.1702,-7.66611 18.7035,-31.23368 c 10.2869,-17.17852 18.4911,-31.787 18.2316,-32.46329 -0.4681,-1.21971 -4.4606,-6.85289 -21.242,-29.97081 l -8.7108,-12 4.7905,-9 c 6.494,-12.20046 20.8924,-36.483708 21.6378,-36.492716 0.3315,-0.004 6.556,9.083786 13.8322,20.195096 l 13.2295,20.20238 2.4396,-4.45238 c 1.3418,-2.44881 11.351,-21.10238 22.2425,-41.45238 l 19.8028,-37 30.1754,-0.337263 c 24.7003,-0.276071 30.1711,-0.09463 30.1524,1 -0.013,0.735494 0.193,37.562263 0.4569,81.837263 0.2639,44.275 0.5746,98.95 0.6903,121.5 l 0.2104,41 -22.4174,0.238 -22.4173,0.238 -14.7049,-20.238 c -27.7409,-38.17908 -36.2961,-49.68268 -36.9693,-49.71032 -0.7227,-0.0297 -27.4038,46.38846 -35.4664,61.70203 -2.6727,5.07634 -5.3094,9.22991 -5.8594,9.23015 -0.55,2.5e-4 -5.3802,-8.42812 -10.7338,-18.72971 z M 1459.8068,173.99946 C 1459.9755,144.84976 1459.7444,121 1459.2932,121 c -0.8809,0 -3.8887,4.97763 -22.5487,37.31636 -10.6555,18.46643 -11.8795,21.06287 -10.8425,23 0.6429,1.201 6.1245,8.93364 12.1814,17.18364 6.0568,8.25 13.0819,18.0375 15.6112,21.75 2.5294,3.7125 4.8703,6.74976 5.2021,6.74946 0.3318,-3e-4 0.7414,-23.8503 0.9101,-53 z"
       id="path1" />
  </g>
</svg>
