<?xml version="1.0" encoding="UTF-8" standalone="no"?>
<!-- Created with Inkscape (http://www.inkscape.org/) -->

<svg
   version="1.1"
   id="svg1"
   width="2799"
   height="384"
   viewBox="0 0 2799 384"
   sodipodi:docname="mag_large.svg"
   inkscape:version="1.4.3 (0d15f75, 2025-12-25)"
   xmlns:inkscape="http://www.inkscape.org/namespaces/inkscape"
   xmlns:sodipodi="http://sodipodi.sourceforge.net/DTD/sodipodi-0.dtd"
   xmlns="http://www.w3.org/2000/svg"
   xmlns:svg="http://www.w3.org/2000/svg">
  <defs
     id="defs1" />
  <sodipodi:namedview
     id="namedview1"
     pagecolor="#52ffff"
     bordercolor="#000000"
     borderopacity="0.25"
     inkscape:showpageshadow="2"
     inkscape:pageopacity="0.0"
     inkscape:pagecheckerboard="0"
     inkscape:deskcolor="#d1d1d1"
     inkscape:zoom="0.63344051"
     inkscape:cx="970.88832"
     inkscape:cy="191.80964"
     inkscape:window-width="1920"
     inkscape:window-height="991"
     inkscape:window-x="-9"
     inkscape:window-y="-9"
     inkscape:window-maximized="1"
     inkscape:current-layer="g1" />
  <g
     inkscape:groupmode="layer"
     inkscape:label="Image"
     id="g1">
    <path
       style="fill:#ffffff;fill-opacity:1"
       d="m 535.76015,327.87619 -23.73984,-29.53156 -0.0512,-95.42231 C 511.941,150.44004 511.93643,96.3625 511.95899,82.75 L 512,58 h 73 73 v 21 21 h -49 -49 v 28 28 h 42 42 v 21 21 h -41.99401 l -41.99402,0 -0.25598,79.70387 -0.25599,79.70387 z m -267.82917,11.03263 c -9.11296,-9.57485 -21.30231,-22.44484 -27.08745,-28.59998 l -10.51844,-11.19115 -0.66254,-30.22174 c -0.3644,-16.62196 -0.72122,-43.76094 -0.79292,-60.30884 -0.0717,-16.54791 -0.4092,-38.62644 -0.75,-49.06339 L 227.5,140.54744 203.10679,176.52372 c -13.41627,19.78695 -24.59096,36.20097 -24.83265,36.47559 -0.59186,0.67251 -2.17138,-1.18603 -29.27414,-34.44547 L 125.5,149.71557 125.24367,224.85778 124.98735,300 H 101.49367 78 L 77.956985,196.75 77.913971,93.5 59.362084,76 40.810198,58.5 78.155099,58.232112 115.5,57.964223 118,60.905735 c 1.375,1.617831 7.21723,8.488381 12.98273,15.267888 5.76551,6.779507 17.54487,20.753882 26.17636,31.054167 l 15.69362,18.72779 3.4395,-6.22779 C 178.18394,116.30251 186.39014,101.125 194.52823,86 c 8.13808,-15.125 14.95671,-27.69576 15.1525,-27.935023 0.19579,-0.239263 2.1853,1.335737 4.42113,3.5 5.59729,5.418117 69.21785,74.286663 70.15259,75.939403 0.41495,0.73367 0.63995,50.2668 0.5,110.07361 L 284.5,356.31765 Z M 1958.9963,340.25 c -0,-8.6625 -0.297,-22.1625 -0.6555,-30 L 1957.6889,296 h -46.2762 -46.2762 l -5.2124,-9.75 c -2.8668,-5.3625 -8.4791,-15.825 -12.4717,-23.25 l -7.2594,-13.5 -0.7101,-76.70588 -0.7101,-76.705886 13.8636,-19.001628 13.8636,-19.001628 64.7873,-0.04249 64.7872,-0.04249 -3.8802,5.75 c -2.1341,3.1625 -8.2846,12.5 -13.6677,20.75 -5.3831,8.25 -9.917,15.150672 -10.0752,15.334827 -0.1582,0.184153 -19.0085,0.298553 -41.8894,0.254223 l -41.6017,-0.0806 0.6033,74.74578 c 0.3319,41.11018 0.7767,75.30828 0.9885,75.99578 0.2978,0.96665 7.7952,1.25 33.075,1.25 h 32.6898 l -0.6584,-19.66081 C 1951.2963,221.52575 1951,209.18524 1951,204.91585 v -7.76254 l -9.1613,-11.32666 c -5.0388,-6.22966 -12.4726,-15.26415 -16.5196,-20.07665 l -7.3582,-8.75 38.9189,0 38.9188,0 0.5759,12.25 c 0.3167,6.7375 0.7665,38.2733 0.9996,70.07955 l 0.4237,57.82955 -13.0089,20.17045 C 1964.3272,349.05564 1959.7621,356 1959.3679,356 c -0.2024,0 -0.3695,-7.0875 -0.3716,-15.75 z M 2493.25,323.9734 2471,295.01776 V 263.0516 231.08544 l -8.8175,-13.79272 c -4.8496,-7.586 -12.7781,-20.09272 -17.6189,-27.79272 -13.8878,-22.09043 -16.7647,-26.5 -17.2891,-26.5 -0.2699,0 -0.1566,29.925 0.2517,66.5 l 0.7424,66.5 H 2405.1343 2382 l 0.018,-10.75 c 0.019,-11.10871 1.0258,-58.34612 3.079,-144.40456 l 1.1847,-49.654551 -8.2944,-11.845444 C 2373.4255,72.83045 2368.1487,65.3625 2366.2613,62.75 l -3.4316,-4.75 30.428,0 30.4281,0 22.31,30.75 c 37.7216,51.99189 39.4889,54.32534 39.7504,52.48386 C 2486.0866,138.8364 2492,61.695164 2492,59.651904 2492,58.160251 2494.416,58 2516.9048,58 l 24.9049,0 -0.4319,3.75 c -0.2375,2.0625 -1.9875,24.45 -3.8888,49.75 -1.9014,25.3 -3.7351,48.16442 -4.0751,50.80982 l -0.618,4.80982 -7.898,-0.68895 -7.8979,-0.68894 v 93.62912 c 0,51.49602 -0.3375,93.61316 -0.75,93.59365 -0.4125,-0.0195 -10.7625,-13.06551 -23,-28.99112 z m -359.7097,9.7766 c -1.04,-1.7875 -9.1461,-14.95 -18.0137,-29.25 -8.8675,-14.3 -25.5511,-41.27713 -37.0747,-59.94917 l -20.9519,-33.94917 -0.5,42.44917 -0.5,42.44917 -19.25,0.27159 -19.25,0.2716 V 177.02159 58 h 22 22 v 18 c 0,9.9 0.3375,18.000123 0.75,18.000273 0.4125,1.51e-4 9.525,-9.053848 20.25,-20.119998 l 19.5,-20.120271 14,20.833022 c 7.7,11.458163 22.8556,33.836214 33.6791,49.729014 l 19.679,28.89599 -4.179,5.27845 c -9.2578,11.69325 -28.5956,35.62873 -37.0126,45.81257 -7.8262,9.46906 -8.8084,11.08066 -7.9227,13 0.5561,1.20502 11.1809,19.23679 23.6108,40.0706 13.3528,22.38092 22.3022,38.37186 21.8725,39.08263 -1.9014,3.14577 -29.7935,40.48208 -30.2615,40.50806 -0.2939,0.0163 -1.3853,-1.43284 -2.4253,-3.22034 z m -16.5156,-178.5 c -2.2889,-3.83082 -25.5909,-33.60831 -26.5484,-33.92605 -0.9068,-0.30096 -31.4763,33.83816 -31.4763,35.15187 0,0.2883 13.2908,0.52418 29.5352,0.52418 27.8604,0 29.4759,-0.0992 28.4895,-1.75 z M 1104,274.76964 c -10.725,-14.3003 -19.8583,-26.74112 -20.2962,-27.64626 -0.5687,-1.17524 4.0746,-10.59934 16.242,-32.96519 13.0197,-23.93269 16.8194,-31.7132 16.1102,-32.98883 -0.5104,-0.91815 -9.2818,-9.9898 -19.492,-20.15922 C 1086.3538,150.84071 1078,142.16982 1078,141.74148 1078,140.81676 1103.833,102 1104.4484,102 c 0.2329,0 6.8094,7.5375 14.6144,16.75 7.8051,9.2125 14.5747,16.75 15.0437,16.75 0.469,0 9.3173,-13.275 19.6629,-29.5 10.3457,-16.225 21.4923,-33.660351 24.7704,-38.745225 l 5.9602,-9.245226 25.7309,-0.0048 25.731,-0.0048 0.4645,2.25 c 0.2554,1.2375 0.7024,4.275 0.9933,6.75 2.2523,19.163331 19.2671,139.9493 24.5813,174.5 4.5238,29.41152 7.9703,53.68845 7.9856,56.25 L 1270,300 h -19.384 -19.3841 l -36.3166,-36.51646 c -19.9741,-20.08405 -36.7252,-36.38023 -37.2247,-36.21374 -0.8852,0.29506 -32.6906,70.13391 -32.6906,71.78252 0,3.06675 -3.6779,-1.1861 -21,-24.28268 z m 106.0959,-76.87137 c -1.6466,-12.31905 -4.6764,-36.04969 -6.7331,-52.73476 l -3.7393,-30.33649 -2.2291,4.33649 c -1.226,2.38507 -8.5298,16.48649 -16.2305,31.33649 l -14.0014,27 22.6687,22.76956 c 12.4879,12.54338 22.8012,22.15369 22.9636,21.39827 0.1621,-0.75421 -1.0524,-11.45051 -2.6989,-23.76956 z M 425.5,282.76919 c -30.48912,-37.45752 -43.71626,-52.9513 -44.50315,-52.12937 -0.45293,0.4731 -9.47203,15.71018 -20.04245,33.86018 -10.57041,18.15 -19.57113,33.38921 -20.00158,33.86491 -0.89654,0.99078 -1.88238,-0.50756 -18.63319,-28.31988 C 315.54383,258.7948 310,249.01021 310,248.30149 c 0,-1.19283 7.52642,-13.28567 29.37439,-47.19636 5.22268,-8.10623 8.3089,-13.8312 7.81668,-14.5 -0.44734,-0.60782 -7.89506,-9.9487 -16.55048,-20.75751 l -15.73712,-19.65238 13.13898,-21.34762 c 7.22644,-11.74119 13.46615,-21.6931 13.86601,-22.11536 0.39986,-0.42226 2.25149,1.37774 4.11474,4 2.70306,3.80418 19.67531,26.68261 24.54765,33.09 0.83558,1.09883 3.45493,-2.84638 11.92221,-17.95702 14.35493,-25.61766 31.77772,-56.561679 34.12539,-60.608917 L 418.5,58.012645 449.66468,58.006323 480.82936,58 l 0.53881,7.25 c 0.29635,3.9875 1.02035,45.95 1.6089,93.25 0.58854,47.3 1.35549,98.4875 1.70431,113.75 l 0.63423,27.75 -22.9078,-0.0155 L 439.5,299.96895 Z M 438.63951,221.75 c -0.47224,-4.97329 -2.25808,-84.48219 -2.10009,-93.5 0.0217,-1.2375 -0.20332,-2.23705 -0.5,-2.22121 -0.29668,0.0158 -4.99152,7.32833 -10.43297,16.25 -5.44145,8.92166 -13.26063,21.7118 -17.37595,28.42252 l -7.4824,12.20132 9.68899,11.79868 c 5.32894,6.48928 13.59812,16.61105 18.37595,22.49283 4.77783,5.88177 9.07688,10.71927 9.55346,10.75 0.47657,0.0307 0.59943,-2.75664 0.27301,-6.19414 z m 248.96745,54 c -0.33984,-13.3375 -1.05965,-59.35 -1.59959,-102.25 -0.53994,-42.9 -1.243,-86.4375 -1.56236,-96.75 L 683.86435,58 708.43218,58 733,58 l 0.009,2.25 c 0.005,1.2375 0.44303,26.325 0.97391,55.75 1.63487,90.61669 2.97506,154.84132 3.54221,169.75 l 0.5421,14.25 h -24.92103 -24.92102 z m 172.87307,-10.5 c -15.20699,-19.1125 -28.00925,-34.88274 -28.44948,-35.04498 -0.44022,-0.16223 -2.69483,3.21277 -5.01024,7.5 -15.84314,29.33537 -33.58248,61.29021 -34.01061,61.26515 -0.5296,-0.031 -1.97433,-2.33973 -20.57641,-32.88172 l -11.21384,-18.41156 10.7311,-17.58844 c 5.90211,-9.67365 14.57345,-23.85733 19.26965,-31.51929 l 8.53854,-13.93084 -16.87416,-22.26159 -16.87415,-22.26159 13.55366,-22.55757 C 787.01861,105.15091 793.25913,95 793.43193,95 c 0.1728,0 6.5588,8.99179 14.19112,19.98177 7.63232,10.98997 14.10195,19.98122 14.37695,19.98055 0.275,-6.6e-4 9.725,-17.31666 21,-38.480005 l 20.5,-38.478802 30.16468,-0.0018 30.16468,-0.0018 0.55229,7.25 c 0.30375,3.9875 1.01799,45.275 1.5872,91.75 0.56921,46.475 1.32348,97.6625 1.67616,113.75 L 928.28626,300 H 908.20768 888.1291 Z M 886.07896,174 c -0.59976,-24.475 -1.0933,-46.975 -1.09676,-50 l -0.006,-5.5 -2.61197,4.5 c -13.74473,23.6799 -31.34867,55.73733 -31.13304,56.6944 0.148,0.65692 7.9191,11.15762 17.2691,23.33488 9.35,12.17726 17.225,22.66477 17.5,23.30559 1.10193,2.56777 1.12062,-9.8264 0.079,-52.33487 z M 1308.2452,298.75 C 1305.9884,295.92801 1286,262.06548 1286,261.06419 c 0,-0.59639 5.9008,-11.54232 13.1128,-24.32427 7.212,-12.78196 18.1781,-32.23992 24.369,-43.23992 6.1909,-11 20.5401,-36.34325 31.8872,-56.31833 11.347,-19.97508 20.631,-36.51258 20.631,-36.75 0,-0.23742 -23.625,-0.43167 -52.5,-0.43167 -28.875,0 -52.5,-0.217409 -52.5,-0.483132 0,-0.265723 6.1296,-9.715723 13.6214,-21 L 1298.2429,58 1363.1214,58 1428,58 v 23.828869 23.828871 l -5.3805,9.92113 c -9.118,16.81254 -34.556,64.14119 -42.687,79.42113 -4.2438,7.975 -13.3897,25.05021 -20.3242,37.9449 -6.9346,12.8947 -12.6083,23.8072 -12.6083,24.25 0,0.44281 21.6,0.8051 48,0.8051 26.4,0 48,0.23542 48,0.52316 0,0.42764 -11.6418,20.42732 -21.9607,37.72684 l -2.2369,3.75 h -54.7787 c -42.6232,0 -55.0006,-0.27738 -55.7785,-1.25 z m 181.0653,-1 c -1.121,-1.2375 -8.3294,-10.85587 -16.0187,-21.37415 l -13.9806,-19.12415 -0.6486,-35.37585 c -0.3567,-19.45672 -0.946,-64.28835 -1.3096,-99.62585 l -0.661,-64.25 21.9932,0 21.9932,0 0.6588,27.75 c 0.3624,15.2625 0.6598,55.01961 0.6609,88.34912 10e-4,33.32952 0.2935,64.04825 0.6498,68.26385 l 0.6479,7.66472 31.6021,-0.26384 L 1566.5,249.5 V 238 c 0,-6.325 -0.3831,-49.4125 -0.8514,-95.75 L 1564.7971,58 H 1587.3986 1610 v 99.50543 99.50543 L 1593.973,278.50543 1577.946,300 h -43.2987 -43.2987 z m 176.4395,-0.51488 c -27.4674,-0.24456 -29.7501,-0.39801 -29.7507,-2 -4e-4,-0.95432 -1.0975,-42.46012 -2.4379,-92.23512 -4.0356,-149.863101 -3.9721,-145.728864 -2.2118,-144 0.84,0.825 11.2285,12.3 23.0856,25.5 l 21.5584,24 0.026,5 c 0.014,2.75 0.6796,32.9 1.4783,67 0.7987,34.1 1.4634,63.9125 1.4771,66.25 L 1679,251 h 44.5 c 24.475,0 44.485,0.3375 44.4667,0.75 -0.018,0.4125 -5.5713,10.82462 -12.34,23.13803 l -12.3068,22.38804 -23.9099,0.11196 c -13.1505,0.0616 -37.2975,-0.007 -53.66,-0.15291 z M 2275.464,261.5 c -15.2101,-18.975 -28.0119,-34.5 -28.4486,-34.5 -0.868,0 -7.4537,10.47272 -28.4981,45.31826 -7.5795,12.55004 -14.1148,22.45004 -14.523,22 -0.7221,-0.79597 -25.5129,-43.52936 -27.9103,-48.11046 -1.0995,-2.10099 0.4368,-4.75986 18.4174,-31.87459 10.7893,-16.27032 19.4202,-30.08883 19.1797,-30.70781 -0.3823,-0.98407 -10.4071,-14.16926 -26.0928,-34.31884 l -4.8214,-6.19343 13.8165,-21.61721 13.8165,-21.617219 1.7867,2.310649 c 0.9827,1.27086 7.2212,9.84815 13.8633,19.06065 6.6422,9.2125 12.3857,16.73157 12.7634,16.70905 0.3777,-0.0225 4.9073,-7.33503 10.0658,-16.25 5.1584,-8.91498 15.7334,-26.89142 23.5,-39.947649 l 14.1209,-23.738599 31.4106,-0.0114 31.4107,-0.0114 -0.6663,67.25 c -0.3665,36.9875 -0.9611,90.5375 -1.3213,119 l -0.655,51.75 h -21.7801 -21.7801 z m 27.303,-111.01184 -0.267,-25.65163 -17.1877,26.33174 c -9.4532,14.48245 -17.435,27.00673 -17.7373,27.83173 -0.3403,0.92864 3.6585,6.8327 10.4981,15.5 6.0763,7.7 14.0581,17.84222 17.7374,22.53828 l 6.6895,8.53827 0.267,-24.71838 c 0.1469,-13.59511 0.1469,-36.26161 0,-50.37001 z m 369.6232,130.78132 C 2652.238,256.23304 2626.8562,226 2625.9893,226 c -0.8044,0 -12.7238,16.94866 -36.3941,51.75 -6.4529,9.4875 -11.8863,17.25 -12.0742,17.25 -0.4868,0 -28.521,-50.59618 -28.521,-51.4748 0,-0.40027 7.9875,-10.84818 17.75,-23.21755 9.7625,-12.36938 20.1359,-25.56082 23.052,-29.31431 l 5.302,-6.82452 -16.5686,-20.81993 c -9.1127,-11.45097 -16.3751,-21.32435 -16.1385,-21.94085 0.4293,-1.11877 29.6718,-38.73161 32.0483,-41.22185 1.019,-1.06777 3.6526,2.20954 14.0626,17.5 7.0449,10.34759 13.2048,19.2585 13.6887,19.80201 0.5522,0.62019 1.8528,-0.2549 3.4923,-2.34982 4.3764,-5.59194 38.0499,-46.714354 51.0874,-62.38838 l 12.2689,-14.75 26.9774,0 c 23.1472,0 26.9775,0.210061 26.9775,1.479501 0,0.813726 -2.457,36.026226 -5.4601,78.249999 -3.0031,42.22378 -6.4206,90.9455 -7.5945,108.2705 -1.174,17.325 -2.4294,35.55 -2.7899,40.5 l -0.6555,9 -21.1108,0.26948 -21.1108,0.26949 z M 2689.9791,175.5 c 1.6458,-20.9 3.23,-40.7 3.5204,-44 l 0.5281,-6 -3.9014,4.5 c -7.0932,8.18151 -40.114,49.48671 -40.1201,50.18566 -0,0.37712 5.4404,7.57712 12.0972,16 6.6569,8.42289 14.6444,18.57575 17.75,22.56191 l 5.6467,7.24757 0.7433,-6.24757 c 0.4088,-3.43616 2.0899,-23.34757 3.7358,-44.24757 z"
       id="path1" />
  </g>
</svg>
